# xmcd CD database file
#
# Track frame offsets:
#	150
#	32915
#	47922
#	71025
#	97865
#	124910
#	162392
#	180645
#	217225
#	240162
#	274370
#	308477
#
# Disc length: 4267 seconds
#
# Revision: 0
# Processed by: cddbd v1.5PL3 Copyright (c) Steve Scherf et al.
# Submitted via: CDex 1.51
#
DISCID=ab10a90c
DTITLE=Various Artist - Jazz Today 2003 (ewe sampler)
DYEAR=2003
DGENRE=Jazz
TTITLE0=North Rider - Toshihiko Inoue
TTITLE1=On And On - Chie Ayado
TTITLE2=Fah - Giulietta Machine
TTITLE3=Portrait Of Jenny - Yoshiro Okazaki
TTITLE4=Ring of Life - Kazumi Watanabe New Electric Trio
TTITLE5=The Rainy Day - Akira Ishii Trio
TTITLE6=Martinique Garden - Combo Piano
TTITLE7=Caroline Champtier - Hiroshi Minami Go There!
TTITLE8=Kino - Vincent Atmicus
TTITLE9=Night Fall - Tetsuro Kawashima
TTITLE10=Waltz In Adventure - YA!3
TTITLE11=Waltz Step - Masahiko Sato
EXTD=YEAR: 2003
EXTT0=
EXTT1=
EXTT2=
EXTT3=
EXTT4=
EXTT5=
EXTT6=
EXTT7=
EXTT8=
EXTT9=
EXTT10=
EXTT11=
PLAYORDER=
